<svg width="412" height="294" viewBox="0 0 412 294" fill="none" xmlns="http://www.w3.org/2000/svg">
<path d="M378.5 197.943C375 204.143 347.4 221.444 338.4 222.844C329.4 224.244 152.3 238.744 146.8 240.144C141.3 241.544 164.1 256.743 194.5 275.443C224.9 294.143 251.9 289.944 261.6 287.244C271.3 284.444 406.2 236.744 406.2 231.244C406.1 225.644 378.5 197.943 378.5 197.943Z" fill="#675345"/>
<path d="M399.2 171.044C400 178.844 352.8 216.743 352.8 216.743C352.8 216.743 281.5 227.143 233.1 231.943C184.7 236.743 141.8 244.443 134.2 243.743C126.6 243.043 89.9 229.243 84.4 227.843C78.9 226.443 33.9001 222.343 27.7001 217.443C21.5001 212.643 15.9 189.044 15.9 189.044C15.9 189.044 2.80002 168.944 6.90002 137.144C11.1 105.344 24.2001 65.8435 29.7001 63.1435C35.2001 60.3435 92 16.1434 136.9 15.4434C181.9 14.7434 192.2 16.1435 192.2 16.1435C192.2 16.1435 187.4 31.3435 208.1 32.0435C228.9 32.7435 237.2 27.8435 237.2 27.8435C237.2 27.8435 285.6 38.2435 329.9 73.5435C374.3 108.744 395.1 132.244 399.2 171.044Z" fill="#675345"/>
<path d="M382.6 135.044C386.8 144.044 361.8 153.744 354.2 158.544C357.7 175.144 333.4 193.843 318.9 182.743C304.4 171.643 246.9 188.243 230.3 188.243C213.7 188.243 129.3 184.743 103.7 176.443C78.1001 168.143 67.7 102.444 62.9 87.1435C49.8 98.2435 42.8 74.6435 51.8 67.7435C60.8 60.8435 100.2 21.3435 187.4 21.3435C187.4 21.3435 174.3 10.2435 145.2 13.0435C116.1 15.8435 33.1 49.7435 24.1 69.0435C15.1 88.4435 4 138.944 7.5 163.144C11 187.344 17.9 190.843 17.9 190.843C17.9 190.843 20.7 207.443 24.1 212.243C27.6 217.043 91.2001 228.144 91.2001 228.144C91.2001 228.144 120.9 241.243 130.6 241.243C140.3 241.243 228.8 234.343 280.7 229.443C332.6 224.643 339.5 225.943 352.7 216.343C365.8 206.643 398.4 183.144 399.1 170.644C399.9 158.544 382.6 135.044 382.6 135.044Z" fill="#48392A"/>
<path d="M394 174.444C394 174.444 253.9 -40.3564 29.7001 72.7436C18.5001 78.4436 55.6 26.0436 116.9 17.7436C178.1 9.44357 192.3 16.0436 192.3 16.0436C192.3 16.0436 203 -0.856457 218.6 6.34354C234.2 13.6435 237.3 27.7436 237.3 27.7436C237.3 27.7436 279.8 30.1436 325.5 67.5436C371.2 104.944 399.2 160.944 399.2 160.944L394 174.444Z" fill="#8C7C64"/>
<path d="M132.7 247.444C134.9 247.444 137 247.344 139.1 247.044C145 246.244 163.2 245.044 186.2 243.344C265.1 237.844 337 232.344 351.2 225.744C380.1 212.344 406.7 177.444 404.5 166.344C392.4 103.644 325.2 46.0435 233.3 19.4435L229.8 31.4435C329 60.1435 382.8 120.744 392.2 168.344C391.2 174.144 372.3 202.344 346 214.544C332.7 220.744 236.8 227.444 185.3 231.044C162.1 232.644 143.8 233.944 137.5 234.744C124.1 236.444 107.3 230.344 96.2001 226.244C90.3001 224.044 86 222.544 82.9 222.244C76 221.644 43.8001 214.344 32.7001 211.344C29.1001 210.344 24.8 199.044 23.4 189.444L23.2001 187.744L22.1 186.444C22 186.344 12.4 173.744 12.4 150.244C12.4 124.944 26.5 78.0436 31.3 71.5436C31.8 70.8436 89.2 5.04358 195.5 23.2436L197.6 10.9435C82.5 -8.85647 21.8 63.4436 21.3 64.1436C14.8 73.0436 0 122.444 0 150.144C0 173.644 8.30002 188.244 11.4 192.644C12.6 199.644 17 219.844 29.6 223.244C39.7 225.944 73.5 233.744 81.8 234.544C83.3 234.644 87.9 236.344 92 237.844C102.7 241.844 118.1 247.444 132.7 247.444Z" fill="#1D1917"/>
<path d="M243.4 293.943C257 293.943 272 291.644 290 287.044C337.6 274.844 408.6 248.944 411.5 236.044C412.1 233.544 413.5 226.844 386.1 192.744L376.4 200.544C385.9 212.344 396.4 227.243 398.8 232.943C389.8 239.943 344.2 260.344 287 275.044C228.4 290.044 207.7 281.144 144.8 236.544L137.6 246.744C182.4 278.444 208.3 293.943 243.4 293.943Z" fill="#1D1917"/>
<path d="M214.5 38.2435C233.2 38.2435 236.2 27.5436 236.7 24.0436C238.1 14.1436 229.3 3.24348 217.9 0.843484C206.5 -1.55652 196.3 1.24351 190.5 8.24351C186.4 13.2435 185.4 19.6435 187.8 25.2435C191 32.5435 199.3 37.2436 210.6 38.0436C211.9 38.2436 213.2 38.2435 214.5 38.2435ZM210 12.5436C211.6 12.5436 213.4 12.7435 215.3 13.1435C221 14.3435 224.7 19.5435 224.3 22.4435C224 24.4435 219.9 26.4435 211.5 25.7435C203.9 25.2435 200.2 22.6435 199.3 20.4435C198.5 18.6435 199.5 17.0435 200.2 16.2435C201.7 14.2435 205 12.5436 210 12.5436Z" fill="#1D1917"/>
</svg>
